# xmcd
#
# Track frame offsets:
#	150
#	7281
#	21997
#	41558
#	47481
#	67980
#	76469
#	89077
#	107041
#	121509
#	139518
#	155122
#	175773
#	194597
#	216641
#	237400
#	252227
#	279624
#
# Disc length: 4131 seconds
#
# Revision: 0
# Processed by: cddbd v1.5.2PL0 Copyright (c) Steve Scherf et al.
# Submitted via: EasyCDDAExtractor 10.0.2.1
#
DISCID=08102112
DTITLE=Adrianne Archie - HTHAELHH
DYEAR=2004
DGENRE=Gospel
TTITLE0=Welcome
TTITLE1=Who Jesus Is
TTITLE2=Always On Time
TTITLE3=It Is Well (Prelude)
TTITLE4=It Is Well
TTITLE5=Praise Elevation
TTITLE6=Way We praise
TTITLE7=Push Myself
TTITLE8=Used To Do
TTITLE9=What A Fellowship
TTITLE10=HHTHAELHH
TTITLE11=Aingonlechugo
TTITLE12=Take It
TTITLE13=Jesus You Reign
TTITLE14=Way Home
TTITLE15=Saints Go Marchin In
TTITLE16=U Never Change
TTITLE17=Why Not Take A Chance
EXTD=
EXTT0=
EXTT1=
EXTT2=
EXTT3=
EXTT4=
EXTT5=
EXTT6=
EXTT7=
EXTT8=
EXTT9=
EXTT10=
EXTT11=
EXTT12=
EXTT13=
EXTT14=
EXTT15=
EXTT16=
EXTT17=
PLAYORDER=
